<svg width="10" height="19" viewBox="0 0 10 19" fill="none" xmlns="http://www.w3.org/2000/svg">
<path d="M9.60947 0.830557L7.28025 0.826965C4.66344 0.826965 2.97234 2.49458 2.97234 5.07566V7.03459H0.630408C0.428038 7.03459 0.26416 7.19228 0.26416 7.38679V10.2251C0.26416 10.4196 0.428224 10.5771 0.630408 10.5771H2.97234V17.7389C2.97234 17.9335 3.13622 18.091 3.33859 18.091H6.39415C6.59652 18.091 6.7604 17.9333 6.7604 17.7389V10.5771H9.49866C9.70103 10.5771 9.86491 10.4196 9.86491 10.2251L9.86603 7.38679C9.86603 7.2934 9.82735 7.20396 9.75877 7.13786C9.6902 7.07177 9.59677 7.03459 9.4996 7.03459H6.7604V5.37398C6.7604 4.57582 6.95828 4.17064 8.04002 4.17064L9.6091 4.1701C9.81128 4.1701 9.97516 4.01241 9.97516 3.81808V1.18258C9.97516 0.988429 9.81147 0.830917 9.60947 0.830557Z" fill="white"/>
</svg>
