                        <svg width="46" height="47" viewBox="0 0 46 47" fill="none" xmlns="http://www.w3.org/2000/svg">
                        <rect opacity="0.143963" y="0.900024" width="45.318" height="45.318" fill="#D8D8D8"/>
                        <path fill-rule="evenodd" clip-rule="evenodd" d="M19.0701 13.848H26.5113C29.9354 13.848 32.7122 16.6248 32.7122 20.049V27.4901C32.7122 30.9143 29.9354 33.6911 26.5113 33.6911H19.0701C15.6459 33.6911 12.8691 30.9143 12.8691 27.4901V20.049C12.8691 16.6248 15.6459 13.848 19.0701 13.848ZM26.5113 31.8308C28.9048 31.8308 30.8519 29.8837 30.8519 27.4901V20.049C30.8519 17.6554 28.9048 15.7083 26.5113 15.7083H19.0701C16.6765 15.7083 14.7294 17.6554 14.7294 20.049V27.4901C14.7294 29.8837 16.6765 31.8308 19.0701 31.8308H26.5113Z" fill="white"/>
                        <path fill-rule="evenodd" clip-rule="evenodd" d="M17.8301 23.7695C17.8301 21.03 20.0513 18.8088 22.7908 18.8088C25.5304 18.8088 27.7516 21.03 27.7516 23.7695C27.7516 26.5091 25.5304 28.7303 22.7908 28.7303C20.0513 28.7303 17.8301 26.5091 17.8301 23.7695ZM19.6904 23.7695C19.6904 25.4785 21.0819 26.87 22.7908 26.87C24.4998 26.87 25.8913 25.4785 25.8913 23.7695C25.8913 22.0593 24.4998 20.6691 22.7908 20.6691C21.0819 20.6691 19.6904 22.0593 19.6904 23.7695Z" fill="white"/>
                        <circle cx="28.1234" cy="18.4367" r="0.661022" fill="white"/>
                        </svg> 