<svg width="25" height="14" viewBox="0 0 25 14" fill="none" xmlns="http://www.w3.org/2000/svg">
                            <path d="M23.4656 10.6731C22.7588 9.85599 21.9271 9.15867 21.1401 8.4182C20.4302 7.75075 20.3854 7.36356 20.9561 6.59321C21.579 5.75244 22.2489 4.94391 22.8774 4.10693C23.4641 3.32473 24.0639 2.54466 24.3726 1.6081C24.5685 1.01225 24.3953 0.749068 23.7613 0.644742C23.6521 0.626485 23.5392 0.625537 23.428 0.625537L19.6668 0.621269C19.2036 0.61463 18.9475 0.809292 18.7837 1.20502C18.5625 1.73993 18.3344 2.27436 18.071 2.79053C17.4732 3.96088 16.8055 5.0921 15.8695 6.05C15.6631 6.26126 15.4348 6.52824 15.0899 6.41822C14.6584 6.26648 14.5312 5.58125 14.5383 5.3496L14.5347 1.16542C14.451 0.567683 14.3135 0.301179 13.6978 0.184998L9.7907 0.185709C9.26917 0.185709 9.00767 0.379897 8.72919 0.694297C8.56855 0.875919 8.52009 0.993759 8.85023 1.05398C9.4987 1.17254 9.86401 1.57704 9.96094 2.2037C10.1164 3.20499 10.1056 4.21031 10.016 5.21563C9.98972 5.50917 9.93732 5.80199 9.81653 6.07608C9.6276 6.5069 9.32256 6.59463 8.92181 6.32955C8.55896 6.0896 8.3041 5.75101 8.05465 5.41101C7.11762 4.13491 6.37001 2.75876 5.76041 1.31266C5.58427 0.894887 5.28045 0.64166 4.82116 0.634784C3.69274 0.617475 2.56407 0.61463 1.43564 0.635732C0.756671 0.648062 0.554209 0.965781 0.830718 1.55902C2.05976 4.19395 3.42779 6.75562 5.21354 9.0892C6.1304 10.2868 7.18305 11.3441 8.54297 12.0933C10.0842 12.9426 11.7432 13.1982 13.4906 13.1195C14.3088 13.0825 14.5546 12.8774 14.5925 12.0914C14.6181 11.5537 14.6813 11.019 14.9566 10.5358C15.2267 10.0616 15.6358 9.97123 16.1074 10.2662C16.3433 10.4139 16.5421 10.6019 16.7298 10.8001C17.1903 11.2857 17.6343 11.786 18.1123 12.2552C18.7118 12.8433 19.422 13.1906 20.315 13.1197L23.7719 13.1204C24.3288 13.0854 24.6177 12.4271 24.2978 11.828C24.0732 11.4083 23.7785 11.0346 23.4656 10.6731Z" fill="white"/>
                          </svg>